<?xml version="1.0"?>
<svg xmlns="http://www.w3.org/2000/svg" xmlns:xlink="http://www.w3.org/1999/xlink" xmlns:svgjs="http://svgjs.com/svgjs" version="1.1" width="512" height="512" x="0" y="0" viewBox="0 0 128 128" style="enable-background:new 0 0 512 512" xml:space="preserve" class=""><g><path xmlns="http://www.w3.org/2000/svg" d="m119.655 116.349-37.255-59.271v-56.078h-36.8v56.078l-37.255 59.271a6.949 6.949 0 0 0 5.884 10.651h99.543a6.949 6.949 0 0 0 5.883-10.651z" fill="#d9e2e9" data-original="#d9e2e9" style=""/><path xmlns="http://www.w3.org/2000/svg" d="m119.655 116.349-37.255-59.271v-56.078h-36.8v56.078l-37.255 59.271a6.949 6.949 0 0 0 5.884 10.651h99.543a6.949 6.949 0 0 0 5.883-10.651z" fill="#f0f5f9" data-original="#f0f5f9" style="" class=""/><path xmlns="http://www.w3.org/2000/svg" d="m94.627 76.527-12.224-19.448v-56.078h-10.192v56.078l12.224 19.448z" fill="#d9e2e9" data-original="#d9e2e9" style=""/><path xmlns="http://www.w3.org/2000/svg" d="m119.655 116.349-26.2-41.683h-58.91l-26.2 41.683a6.949 6.949 0 0 0 5.884 10.651h99.543a6.949 6.949 0 0 0 5.883-10.651z" fill="#efcf53" data-original="#ef5361" style="" class=""/><path xmlns="http://www.w3.org/2000/svg" d="m113.767 127h-99.534a6.957 6.957 0 0 1 -5.89-10.654l26.207-41.678h58.9l26.207 41.678a6.957 6.957 0 0 1 -5.89 10.654z" fill="#efcf53" data-original="#ef5361" style="" class=""/><path xmlns="http://www.w3.org/2000/svg" d="m113.767 127h-9.717a6.957 6.957 0 0 0 5.89-10.654l-26.193-41.678h9.7l26.207 41.678a6.957 6.957 0 0 1 -5.887 10.654z" fill="#daa62a" data-original="#da2a47" style="" class=""/><path xmlns="http://www.w3.org/2000/svg" d="m113.771 128h-99.542a7.949 7.949 0 0 1 -6.729-12.184l37.1-59.026v-55.79a1 1 0 0 1 1-1h36.8a1 1 0 0 1 1 1v55.79l37.1 59.027a7.949 7.949 0 0 1 -6.729 12.183zm-67.171-126v55.078a1 1 0 0 1 -.153.532l-37.255 59.271a5.949 5.949 0 0 0 5.037 9.119h99.543a5.949 5.949 0 0 0 5.037-9.115l-37.255-59.275a1 1 0 0 1 -.153-.532v-55.078z" fill="#2f3a5a" data-original="#2f3a5a" style=""/><path xmlns="http://www.w3.org/2000/svg" d="m83.787 1h-39.574a3.963 3.963 0 0 0 0 7.926h39.574a3.963 3.963 0 0 0 0-7.926z" fill="#f0f5f9" data-original="#f0f5f9" style="" class=""/><g xmlns="http://www.w3.org/2000/svg" fill="#2f3a5a"><path d="m83.787 9.926h-39.574a4.963 4.963 0 1 1 0-9.926h39.574a4.963 4.963 0 1 1 0 9.926zm-39.574-7.926a2.963 2.963 0 1 0 0 5.926h39.574a2.963 2.963 0 1 0 0-5.926z" fill="#2f3a5a" data-original="#2f3a5a" style=""/><path d="m59.405 20.236h-7.445a1 1 0 0 1 0-2h7.445a1 1 0 0 1 0 2z" fill="#2f3a5a" data-original="#2f3a5a" style=""/><path d="m55.683 29.566h-3.723a1 1 0 0 1 0-2h3.723a1 1 0 0 1 0 2z" fill="#2f3a5a" data-original="#2f3a5a" style=""/><path d="m59.405 38.7h-7.445a1 1 0 0 1 0-2h7.445a1 1 0 0 1 0 2z" fill="#2f3a5a" data-original="#2f3a5a" style=""/><path d="m55.683 48.032h-3.723a1 1 0 0 1 0-2h3.723a1 1 0 0 1 0 2z" fill="#2f3a5a" data-original="#2f3a5a" style=""/><path d="m59.405 57.169h-7.445a1 1 0 0 1 0-2h7.445a1 1 0 0 1 0 2z" fill="#2f3a5a" data-original="#2f3a5a" style=""/><path d="m55.683 66.5h-3.723a1 1 0 0 1 0-2h3.723a1 1 0 0 1 0 2z" fill="#2f3a5a" data-original="#2f3a5a" style=""/><path d="m59.405 75.635h-7.445a1 1 0 0 1 0-2h7.445a1 1 0 0 1 0 2z" fill="#2f3a5a" data-original="#2f3a5a" style=""/><path d="m55.683 84.965h-3.723a1 1 0 1 1 0-2h3.723a1 1 0 0 1 0 2z" fill="#2f3a5a" data-original="#2f3a5a" style=""/><path d="m59.405 94.1h-7.445a1 1 0 1 1 0-2h7.445a1 1 0 0 1 0 2z" fill="#2f3a5a" data-original="#2f3a5a" style=""/><path d="m55.683 103.432h-3.723a1 1 0 0 1 0-2h3.723a1 1 0 1 1 0 2z" fill="#2f3a5a" data-original="#2f3a5a" style=""/><path d="m59.405 112.568h-7.445a1 1 0 1 1 0-2h7.445a1 1 0 0 1 0 2z" fill="#2f3a5a" data-original="#2f3a5a" style=""/></g></g></svg>
